<svg viewBox="0 0 510.67 110.34" fill="none" xmlns="http://www.w3.org/2000/svg">
  <g id="CHOP_logo">
    <path d="m56.83 97.81h14v-27c-1.22 1.07-9 7.81-14 10.33z" fill="#41b6e6"></path>
    <path d="m103.67 27.27v24.37a39.37 39.37 0 0 0 -16.83-3.76 41.05 41.05 0 0 0 -16 3.39v-24h-14v34.23l-1.24 1a25.69 25.69 0 1 1 -1.28-42.5v-15.49a39.65 39.65 0 1 0 -13.74 76.84 39.89 39.89 0 0 0 15-3c.39-.15.8-.34 1.24-.56 5-2.51 12.75-9.26 14-10.33l.17-.15a25.61 25.61 0 0 1 32.7.82v29.68h14v-70.54z" fill="#41b6e6"></path>
    <path d="m27 44.55a5.89 5.89 0 0 0 0-1.73c-.07-1.24-.22-2.47-.34-3.71-.3-3-.45-6.09 1.25-8.76a8.81 8.81 0 0 1 1.34-1.64l.1-.09a12 12 0 0 1 8-3.3 13 13 0 0 1 4.15.52 22.83 22.83 0 0 1 3.88 1.48 10 10 0 0 1 1.57 1 5.43 5.43 0 0 1 1.25 1.28 4.55 4.55 0 0 1 .6 4.3l-.19.38-.19.33a5.26 5.26 0 0 0 -.08-.78 1.38 1.38 0 0 1 -.56.82h-.07a4.25 4.25 0 0 1 -.2.71 5.47 5.47 0 0 0 -.51 1.4 2 2 0 0 1 0 .24c.55 0 .61-.36.6-.16s-.46.39-.62.46a4.53 4.53 0 0 0 1.02 2.21 11 11 0 0 1 .92.93c.44.62-.69 1.24-.88 1.5.18.42.3.46.36.7s-.73.52-.55.78.27.67 0 .87c-.74.52-.63.66-.41 1.78s-.44 1.57-1.27 1.75-2.91-.5-3.59-.09c-1.54 1.18-2.77 3.69 1.24 9.44.31.44 1.43 1.78.71 1.78-3 0-8-6.48-15-2.25-.9.54 3.11-5.14 3.73-8.14a4 4 0 0 1 -1.92-.94 1.46 1.46 0 0 0 .64.86s-.27 0-.33 0h-.32a3.89 3.89 0 0 1 -2.41-.65 2.29 2.29 0 0 1 -.79-1.12 4.62 4.62 0 0 1 -.17-1.11 1.34 1.34 0 0 1 -.54.71 1.78 1.78 0 0 1 -1.25.26 4.72 4.72 0 0 0 .83-2.02z" fill="#41b6e6"></path>
    <g fill="#005587">
      <path d="m161.47 49.28a2.68 2.68 0 0 1 2.53-1.67 2.83 2.83 0 0 1 2.79 2.67 3.87 3.87 0 0 1 -.29 1.55c-1.79 4.21-6.26 6.63-10.93 6.63-7.09 0-12-5.17-12.52-11.85a43.15 43.15 0 0 1 -.05-6.61c.54-6.68 5.43-11.9 12.52-11.9 4.67 0 9.14 2.42 10.93 6.64a3.82 3.82 0 0 1 .29 1.54 2.76 2.76 0 0 1 -5.3 1 6.55 6.55 0 0 0 -5.92-3.67c-4.05 0-6.55 3-6.84 7.1a36.61 36.61 0 0 0 0 5.34c.32 4.11 2.82 6.95 6.87 6.95a6.53 6.53 0 0 0 5.92-3.72z"></path>
      <path d="m177.79 37a8.68 8.68 0 0 1 5.26-1.63c5.3 0 8.43 3.18 8.43 9.14v10.7a2.8 2.8 0 1 1 -5.59 0v-10.44c0-2.54-1.46-4-3.76-4a6.2 6.2 0 0 0 -4.34 1.75v12.77a2.77 2.77 0 0 1 -2.79 2.88 2.88 2.88 0 0 1 -2.84-2.88v-24.41a2.8 2.8 0 1 1 5.59 0z"></path>
      <path d="m200.2 33.17a3 3 0 0 1 -3-3 2.89 2.89 0 0 1 3-3 3 3 0 0 1 3 3 3 3 0 0 1 -3 3zm2.8 5.18v16.94a2.81 2.81 0 0 1 -2.8 2.88 2.86 2.86 0 0 1 -2.79-2.88v-16.94a2.76 2.76 0 0 1 2.79-2.88 2.81 2.81 0 0 1 2.8 2.88z"></path>
      <path d="m214.81 31v24.29a2.79 2.79 0 0 1 -2.81 2.88 2.86 2.86 0 0 1 -2.8-2.88v-24.29a2.8 2.8 0 1 1 5.59 0z"></path>
      <path d="m229.38 35.34a13.62 13.62 0 0 1 4.92 1v-5.46a2.8 2.8 0 1 1 5.59 0v22.87a2 2 0 0 1 -1 2 16.18 16.18 0 0 1 -8.76 2.59c-5.8 0-9.43-3.59-9.89-8.68a42.58 42.58 0 0 1 0-5.76c.46-5.22 3.63-8.56 9.14-8.56zm.87 17.66a7.67 7.67 0 0 0 4.05-1.29v-9.9a9.32 9.32 0 0 0 -4.38-1.12c-2.67 0-3.92 1.5-4.09 4a34.17 34.17 0 0 0 0 4.05c.17 2.75 1.71 4.26 4.42 4.26z"></path>
      <path d="m259.21 38.56a2.63 2.63 0 0 1 -2.62 2.63c-1 0-1.88-.42-3.13-.38s-2.18.79-2.18 2.71v11.81a2.78 2.78 0 0 1 -2.79 2.84 2.81 2.81 0 0 1 -2.8-2.84v-12.85c0-4.34 2.55-7.14 7.35-7.14a16.6 16.6 0 0 1 3.59.34c1.71.46 2.58 1.5 2.58 2.88z"></path>
      <path d="m281.12 45.94a2.55 2.55 0 0 1 -2.88 2.8h-11.1v.42c0 2.62 2 4 4.8 4a12.83 12.83 0 0 0 4.47-.91 2.5 2.5 0 0 1 3.67 2.21 2.56 2.56 0 0 1 -1.42 2.33 14.61 14.61 0 0 1 -6.88 1.47c-5.76 0-9.64-3.64-10.06-8.85a43.19 43.19 0 0 1 0-5.22c.5-5.42 4.38-8.89 9.85-8.89 5.67 0 9.55 3.8 9.55 9.68zm-5.84-1c.29 0 .46-.17.46-.5a3.82 3.82 0 0 0 -4.17-4.26c-3 0-4.43 1.88-4.43 4.76z"></path>
      <path d="m305.33 55.29a2.79 2.79 0 0 1 -2.8 2.88 2.86 2.86 0 0 1 -2.79-2.88v-10.56c0-2.71-1.88-3.92-4.05-3.92a8.49 8.49 0 0 0 -4.09 1v13.48a2.79 2.79 0 0 1 -2.8 2.88 2.86 2.86 0 0 1 -2.8-2.88v-15.61a2.12 2.12 0 0 1 1-2 15.94 15.94 0 0 1 8.85-2.3c6.26 0 9.47 3.3 9.47 9.14z"></path>
      <path d="m314.72 33.05a9.77 9.77 0 0 1 -1.21 5 3.05 3.05 0 0 1 -2.63 1.67 2.29 2.29 0 0 1 -2.34-2.22c0-1.25 1.13-2 1.13-4.21v-2.41a2.45 2.45 0 0 1 2.51-2.46 2.48 2.48 0 0 1 2.54 2.46z"></path>
      <path d="m333.92 51c0 4.68-3.89 7.27-8.73 7.27-3.92 0-6.42-1.13-8-2.43a2.6 2.6 0 0 1 -.5-3.46 2.55 2.55 0 0 1 3.63-.5 9.23 9.23 0 0 0 5 1.38c2.17 0 3.17-.8 3.17-1.92 0-.92-.67-1.55-2.42-2-1.5-.34-1.46-.3-3.09-.71-3.42-.88-6.09-2.8-6.09-6.39 0-4.5 3.63-7 8.51-7 2.63 0 5.34.67 6.8 1.88a2.61 2.61 0 0 1 .26 3.72 3 3 0 0 1 -3.64.33 9 9 0 0 0 -3.63-.92c-2.08 0-3 .79-3 1.8s.63 1.46 2.51 1.87l3 .67c4.17 1.1 6.22 3.15 6.22 6.41z"></path>
      <path d="m349.11 31.25a2.9 2.9 0 0 1 2.89-2.92 2.84 2.84 0 0 1 2.84 2.92v9.23h13.22v-9.23a2.89 2.89 0 0 1 2.84-2.92 2.85 2.85 0 0 1 2.88 2.92v23.92a2.88 2.88 0 0 1 -2.88 3 3 3 0 0 1 -2.84-3v-9.1h-13.23v9.14a2.81 2.81 0 0 1 -2.83 2.92 2.92 2.92 0 0 1 -2.88-2.92z"></path>
      <path d="m389.46 58.3c-5.46 0-9.59-3.51-10-8.48a45.59 45.59 0 0 1 0-6c.42-5 4.55-8.52 10-8.52s9.56 3.51 10 8.52a48.72 48.72 0 0 1 0 5.92c-.46 5.05-4.46 8.56-10 8.56zm4.43-13.57a4.12 4.12 0 0 0 -4.43-4 4.2 4.2 0 0 0 -4.46 4 32.39 32.39 0 0 0 0 4.18 4.2 4.2 0 0 0 4.46 4 4.15 4.15 0 0 0 4.43-4 36.43 36.43 0 0 0 0-4.18z"></path>
      <path d="m421.18 51c0 4.68-3.88 7.27-8.72 7.27-3.92 0-6.43-1.13-8-2.43a2.59 2.59 0 0 1 -.5-3.46 2.55 2.55 0 0 1 3.63-.5 9.17 9.17 0 0 0 5 1.38c2.17 0 3.17-.8 3.17-1.92 0-.92-.66-1.55-2.42-2-1.5-.34-1.46-.3-3.08-.71-3.42-.88-6.1-2.8-6.1-6.39 0-4.5 3.63-7 8.52-7 2.63 0 5.34.67 6.8 1.88a2.62 2.62 0 0 1 .25 3.72 3 3 0 0 1 -3.63.33 9.06 9.06 0 0 0 -3.63-.92c-2.09 0-3 .79-3 1.8s.62 1.46 2.5 1.87l3 .67c4.16 1.1 6.21 3.15 6.21 6.41z"></path>
      <path d="m436 58.3a10.59 10.59 0 0 1 -4.76-1v6.22a2.8 2.8 0 1 1 -5.59 0v-24a1.5 1.5 0 0 1 .71-1.42 16.49 16.49 0 0 1 9.13-2.72c5.76 0 9.35 3.55 9.81 8.68a42 42 0 0 1 0 5.72c-.42 5.13-3.71 8.52-9.3 8.52zm-.63-17.57a8.38 8.38 0 0 0 -4.13 1.27v9.85a8.68 8.68 0 0 0 4.21 1.15c2.8 0 4.05-1.46 4.26-4a34.18 34.18 0 0 0 0-4.05c-.21-2.76-1.71-4.22-4.34-4.22z"></path>
      <path d="m453.69 33.17a3 3 0 0 1 -3-3 2.89 2.89 0 0 1 3-3 2.94 2.94 0 0 1 3 3 3 3 0 0 1 -3 3zm2.8 5.18v16.94a2.81 2.81 0 0 1 -2.8 2.88 2.86 2.86 0 0 1 -2.79-2.88v-16.94a2.76 2.76 0 0 1 2.79-2.88 2.82 2.82 0 0 1 2.8 2.88z"></path>
      <path d="m470 58.3c-5.18 0-7.51-3.55-7.51-8.23v-16.48a2.8 2.8 0 1 1 5.59 0v2.84h5.21a2.46 2.46 0 1 1 0 4.92h-5.21v8.65c0 2 .87 3.09 2.71 3.09a9.78 9.78 0 0 0 2.59-.46c2.12-.5 3.46.83 3.46 2.38a2.66 2.66 0 0 1 -1.75 2.46 13.19 13.19 0 0 1 -5.09.83z"></path>
      <path d="m498.09 54a2 2 0 0 1 -1 2 16 16 0 0 1 -8.8 2.3c-6.05 0-8.81-3.39-8.81-7.35 0-3.55 2.46-6.8 8.6-6.8a18.31 18.31 0 0 1 4.63.62v-1.12c0-2.17-1-3.26-4-3.26a13.84 13.84 0 0 0 -4 .71c-2.38.75-3.84-.46-3.84-2.17a2.62 2.62 0 0 1 1.84-2.54 17.49 17.49 0 0 1 6.13-1c5.88 0 9.22 2.59 9.22 8.48zm-5.38-1.59v-3.71a13.59 13.59 0 0 0 -4.17-.67c-2.26 0-3.63 1.13-3.63 2.71 0 1.84 1.46 2.8 3.75 2.8a7.19 7.19 0 0 0 4.05-1.09z"></path>
      <path d="m509.4 31v24.29a2.79 2.79 0 0 1 -2.79 2.88 2.87 2.87 0 0 1 -2.8-2.88v-24.29a2.8 2.8 0 1 1 5.59 0z"></path>
      <path d="m153.09 100c-5.47 0-9.6-3.51-10-8.47a49.55 49.55 0 0 1 0-6c.42-5 4.55-8.51 10-8.51s9.55 3.5 10 8.51a48.89 48.89 0 0 1 0 5.93c-.45 5.06-4.49 8.54-10 8.54zm4.42-13.56a4.12 4.12 0 0 0 -4.42-4 4.21 4.21 0 0 0 -4.47 4 36.26 36.26 0 0 0 0 4.17 4.21 4.21 0 0 0 4.47 4 4.15 4.15 0 0 0 4.42-4 36.26 36.26 0 0 0 0-4.14z"></path>
      <path d="m169.91 77.08c0-5 2.87-7.76 7.42-7.76a17.07 17.07 0 0 1 4.22.54 2.67 2.67 0 0 1 2.17 2.67 2.43 2.43 0 0 1 -2.63 2.47c-.92 0-1.92-.38-3.21-.38-1.51 0-2.38.92-2.38 2.72v.87h4.84a2.47 2.47 0 1 1 0 4.93h-4.84v13.8a2.81 2.81 0 0 1 -2.8 3 2.86 2.86 0 0 1 -2.79-3v-13.85h-1a2.47 2.47 0 1 1 0-4.93h1z"></path>
      <path d="m204.79 90.1v6.8a3 3 0 0 1 -2.83 3 3 3 0 0 1 -2.88-3v-22.9a3.54 3.54 0 0 1 3.79-3.72h8.31c5.51 0 10.22 3.68 10.22 9.94s-4.46 9.93-10.6 9.93zm5.89-5.51c3.5 0 5-1.67 5-4.38s-1.58-4.38-4.88-4.38h-6v8.76z"></path>
      <path d="m231.42 78.7a8.68 8.68 0 0 1 5.26-1.62c5.3 0 8.43 3.17 8.43 9.14v10.72a2.8 2.8 0 1 1 -5.6 0v-10.43c0-2.55-1.46-4-3.75-4a6.21 6.21 0 0 0 -4.34 1.76v12.73a2.78 2.78 0 0 1 -2.75 2.88 2.87 2.87 0 0 1 -2.84-2.88v-24.39a2.8 2.8 0 1 1 5.59 0z"></path>
      <path d="m253.83 74.91a3 3 0 0 1 -3-3 2.89 2.89 0 0 1 3-3 2.94 2.94 0 0 1 3 3 3 3 0 0 1 -3 3zm2.8 5.17v16.92a2.81 2.81 0 0 1 -2.8 2.88 2.87 2.87 0 0 1 -2.83-2.88v-16.92a2.77 2.77 0 0 1 2.8-2.88 2.82 2.82 0 0 1 2.83 2.88z"></path>
      <path d="m268.44 72.7v24.3a2.79 2.79 0 0 1 -2.8 2.88 2.86 2.86 0 0 1 -2.79-2.88v-24.3a2.82 2.82 0 0 1 2.79-2.92 2.86 2.86 0 0 1 2.8 2.92z"></path>
      <path d="m292.06 95.77a2 2 0 0 1 -1 2 15.92 15.92 0 0 1 -8.8 2.3c-6.05 0-8.8-3.38-8.8-7.35 0-3.54 2.46-6.8 8.59-6.8a17.74 17.74 0 0 1 4.63.63v-1.17c0-2.17-1-3.25-4-3.25a13.63 13.63 0 0 0 -4 .71c-2.38.75-3.84-.46-3.84-2.17a2.63 2.63 0 0 1 1.84-2.55 17.57 17.57 0 0 1 6.13-1c5.89 0 9.23 2.58 9.23 8.47zm-5.39-1.58v-3.76a13.54 13.54 0 0 0 -4.17-.67c-2.25 0-3.63 1.13-3.63 2.71 0 1.84 1.46 2.8 3.76 2.8a7.2 7.2 0 0 0 4.04-1.08z"></path>
      <path d="m306.29 77.08a13.79 13.79 0 0 1 4.92 1v-5.47a2.8 2.8 0 1 1 5.59 0v22.87a2 2 0 0 1 -1 2 16.15 16.15 0 0 1 -8.8 2.52c-5.8 0-9.43-3.59-9.89-8.68a46.12 46.12 0 0 1 0-5.76c.5-5.14 3.67-8.48 9.18-8.48zm.87 17.61a7.53 7.53 0 0 0 4-1.3v-9.84a9.27 9.27 0 0 0 -4.38-1.13c-2.67 0-3.92 1.5-4.09 4a34 34 0 0 0 0 4c.22 2.81 1.76 4.27 4.47 4.27z"></path>
      <path d="m341.72 87.68a2.55 2.55 0 0 1 -2.88 2.79h-11.1v.42c0 2.63 2 4 4.8 4a12.79 12.79 0 0 0 4.46-.89 2.5 2.5 0 0 1 3.67 2.21 2.59 2.59 0 0 1 -1.41 2.34 14.68 14.68 0 0 1 -6.89 1.46c-5.76 0-9.64-3.63-10.05-8.85a41.07 41.07 0 0 1 0-5.21c.5-5.43 4.38-8.89 9.84-8.89 5.68 0 9.56 3.8 9.56 9.68zm-5.84-1c.29 0 .46-.17.46-.51a3.83 3.83 0 0 0 -4.18-4.25c-3 0-4.42 1.88-4.42 4.76z"></path>
      <path d="m352.32 72.7v24.3a2.79 2.79 0 0 1 -2.8 2.88 2.86 2.86 0 0 1 -2.79-2.88v-24.3a2.8 2.8 0 1 1 5.59 0z"></path>
      <path d="m368.59 100a10.57 10.57 0 0 1 -4.75-1v6.22a2.8 2.8 0 1 1 -5.59 0v-24a1.5 1.5 0 0 1 .71-1.42 16.5 16.5 0 0 1 9.13-2.71c5.76 0 9.35 3.54 9.81 8.68a41.85 41.85 0 0 1 0 5.71c-.42 5.17-3.71 8.52-9.31 8.52zm-.59-17.54a8.38 8.38 0 0 0 -4.13 1.25v9.85a8.63 8.63 0 0 0 4.21 1.13c2.8 0 4.05-1.46 4.26-4a34.18 34.18 0 0 0 0-4.05c-.24-2.72-1.7-4.18-4.34-4.18z"></path>
      <path d="m388.88 78.7a8.66 8.66 0 0 1 5.26-1.62c5.29 0 8.42 3.17 8.42 9.14v10.72a2.8 2.8 0 1 1 -5.59 0v-10.43c0-2.55-1.46-4-3.75-4a6.17 6.17 0 0 0 -4.34 1.76v12.73a2.78 2.78 0 0 1 -2.76 2.88 2.87 2.87 0 0 1 -2.83-2.88v-24.39a2.8 2.8 0 1 1 5.59 0z"></path>
      <path d="m411.29 74.91a3 3 0 0 1 -3-3 2.89 2.89 0 0 1 3-3 2.94 2.94 0 0 1 3 3 3 3 0 0 1 -3 3zm2.79 5.17v16.92a2.81 2.81 0 0 1 -2.79 2.88 2.87 2.87 0 0 1 -2.8-2.88v-16.92a2.77 2.77 0 0 1 2.8-2.88 2.81 2.81 0 0 1 2.79 2.88z"></path>
      <path d="m437.87 95.77a2 2 0 0 1 -1 2 16 16 0 0 1 -8.81 2.3c-6.05 0-8.8-3.38-8.8-7.35 0-3.54 2.46-6.8 8.6-6.8a17.86 17.86 0 0 1 4.63.63v-1.17c0-2.17-1.05-3.25-4-3.25a13.5 13.5 0 0 0 -4 .71c-2.38.75-3.84-.46-3.84-2.17a2.63 2.63 0 0 1 1.83-2.55 17.59 17.59 0 0 1 6.14-1c5.88 0 9.22 2.58 9.22 8.47zm-5.38-1.58v-3.76a13.61 13.61 0 0 0 -4.18-.67c-2.25 0-3.63 1.13-3.63 2.71 0 1.84 1.47 2.8 3.76 2.8a7.21 7.21 0 0 0 4.05-1.08z"></path>
      <path d="m444.18 84.64a3.5 3.5 0 0 1 -3.62-3.31 9.37 9.37 0 0 1 0-1.06 3.63 3.63 0 0 1 7.23 0v1.06a3.49 3.49 0 0 1 -3.61 3.31zm2.87-4.41a2.89 2.89 0 0 0 -5.74 0 7.49 7.49 0 0 0 0 1.16 2.89 2.89 0 0 0 5.74 0 5.62 5.62 0 0 0 0-1.16zm-2.82 1.17a.3.3 0 0 0 -.27-.13h-.58v1.14a.34.34 0 0 1 -.38.35.35.35 0 0 1 -.35-.35v-3.15a.45.45 0 0 1 .51-.46h1.26a1.28 1.28 0 0 1 1.44 1.2 1.09 1.09 0 0 1 -.9 1.11l.94 1.07a.3.3 0 0 1 .1.23.36.36 0 0 1 -.4.34.38.38 0 0 1 -.27-.14zm.1-.75c.57 0 .76-.26.76-.61s-.22-.62-.73-.62h-1v1.23z"></path>
    </g>
  </g>
</svg>
