<svg xmlns="http://www.w3.org/2000/svg" width="217" height="104" viewBox="0 0 217 104" fill="none" focusable="false" aria-hidden="true">
<path d="M107.65 0V28.7211H91.0105V16.6394H16.6394V28.6849H0V0H107.65Z" fill="#C8102E"></path>
<path d="M0 103.96V75.239H16.6394V87.2845H90.9743V75.239H107.614V103.96H0Z" fill="#C8102E"></path>
<path d="M121.504 28.5039H123.675L127.219 34.4362C127.545 35.015 127.979 35.9193 127.979 35.9193H128.015C128.015 35.9193 127.943 34.8341 127.943 34.0745V28.5039H130.077V39.1025H128.015L124.398 33.2425C124.072 32.6638 123.638 31.7595 123.638 31.7595H123.602C123.602 31.7595 123.675 32.8808 123.675 33.6043V39.0663H121.54V28.5039H121.504Z" fill="white"></path>
<path d="M136.045 38.2706C135.648 38.8494 135.069 39.2834 133.767 39.2834C132.211 39.2834 131.126 38.4515 131.126 36.9684C131.126 35.3044 132.501 34.7618 134.201 34.5086C135.467 34.3278 136.045 34.2193 136.045 33.6405C136.045 33.0979 135.611 32.7362 134.779 32.7362C133.839 32.7362 133.369 33.0617 133.296 33.8214H131.488C131.56 32.483 132.537 31.3254 134.779 31.3254C137.058 31.3254 137.999 32.3383 137.999 34.1469V37.9812C137.999 38.56 138.071 38.8855 138.252 39.0302V39.1026H136.299C136.154 38.9579 136.082 38.5961 136.045 38.2706ZM136.045 36.4258V35.2683C135.684 35.4853 135.141 35.5938 134.635 35.7023C133.586 35.9555 133.043 36.1726 133.043 36.896C133.043 37.6195 133.513 37.8727 134.237 37.8727C135.431 37.8727 136.045 37.1854 136.045 36.4258Z" fill="white"></path>
<path d="M138.469 31.5063H139.518V29.1189H141.508V31.5063H142.81V32.8447H141.508V36.896C141.508 37.4748 141.833 37.6557 142.267 37.6557C142.521 37.6557 142.846 37.6557 142.846 37.6557V39.1387C142.846 39.1387 142.376 39.1749 141.58 39.1749C140.603 39.1749 139.518 38.777 139.518 37.3663V32.8809H138.469V31.5063Z" fill="white"></path>
<path d="M143.714 28.5039H145.74V30.3125H143.714V28.5039ZM143.714 31.5062H145.74V39.1387H143.714V31.5062Z" fill="white"></path>
<path d="M146.536 35.3045C146.536 33.0256 148.163 31.2893 150.515 31.2893C152.866 31.2893 154.494 33.0256 154.494 35.3045C154.494 37.5834 152.866 39.3196 150.515 39.3196C148.163 39.3196 146.536 37.5834 146.536 35.3045ZM152.468 35.3045C152.468 33.8214 151.781 32.8086 150.551 32.8086C149.321 32.8086 148.634 33.8214 148.634 35.3045C148.634 36.7876 149.321 37.8004 150.551 37.8004C151.745 37.8004 152.468 36.7876 152.468 35.3045Z" fill="white"></path>
<path d="M157.315 32.5192H157.351C157.858 31.6872 158.581 31.2893 159.594 31.2893C161.186 31.2893 162.235 32.483 162.235 34.1469V39.1026H160.245V34.4363C160.245 33.6044 159.775 33.0256 158.907 33.0256C158.002 33.0256 157.351 33.749 157.351 34.7619V39.0664H155.326V31.434H157.315V32.5192Z" fill="white"></path>
<path d="M167.986 38.2706C167.588 38.8494 167.009 39.2834 165.707 39.2834C164.152 39.2834 163.067 38.4515 163.067 36.9684C163.067 35.3044 164.441 34.7618 166.141 34.5086C167.407 34.3278 167.986 34.2193 167.986 33.6405C167.986 33.0979 167.552 32.7362 166.72 32.7362C165.78 32.7362 165.309 33.0617 165.237 33.8214H163.428C163.501 32.483 164.477 31.3254 166.72 31.3254C168.999 31.3254 169.939 32.3383 169.939 34.1469V37.9812C169.939 38.56 170.012 38.8855 170.193 39.0302V39.1026H168.203C168.095 38.9579 168.022 38.5961 167.986 38.2706ZM167.986 36.4258V35.2683C167.624 35.4853 167.082 35.5938 166.575 35.7023C165.526 35.9555 164.984 36.1726 164.984 36.896C164.984 37.6195 165.454 37.8727 166.178 37.8727C167.371 37.8727 167.986 37.1854 167.986 36.4258Z" fill="white"></path>
<path d="M171.097 28.5039H173.123V39.1025H171.097V28.5039Z" fill="white"></path>
<path d="M121.07 51.0757C121.07 47.9287 123.023 45.5413 126.17 45.5413C128.775 45.5413 130.33 47.0967 130.547 49.1224H128.413C128.232 48.0372 127.436 47.3499 126.17 47.3499C124.217 47.3499 123.277 48.9777 123.277 51.0757C123.277 53.246 124.398 54.8015 126.17 54.8015C127.436 54.8015 128.341 54.0418 128.449 52.9205H130.547C130.475 53.861 130.077 54.7653 129.39 55.4164C128.666 56.1037 127.653 56.5377 126.17 56.5377C123.168 56.5377 121.07 54.2589 121.07 51.0757Z" fill="white"></path>
<path d="M131.054 52.5225C131.054 50.2436 132.681 48.5073 135.033 48.5073C137.384 48.5073 139.012 50.2436 139.012 52.5225C139.012 54.8014 137.384 56.5377 135.033 56.5377C132.681 56.5377 131.054 54.8014 131.054 52.5225ZM136.986 52.5225C136.986 51.0394 136.299 50.0266 135.069 50.0266C133.839 50.0266 133.152 51.0394 133.152 52.5225C133.152 54.0056 133.839 55.0184 135.069 55.0184C136.263 55.0184 136.986 54.0056 136.986 52.5225Z" fill="white"></path>
<path d="M141.869 49.7372H141.906C142.412 48.9052 143.135 48.5073 144.148 48.5073C145.74 48.5073 146.789 49.701 146.789 51.365V56.3206H144.763V51.6543C144.763 50.8224 144.293 50.2436 143.425 50.2436C142.521 50.2436 141.869 50.9671 141.869 51.9799V56.2845H139.844V48.652H141.833V49.7372H141.869Z" fill="white"></path>
<path d="M147.512 53.8609H149.393C149.538 54.729 150.153 55.1269 151.057 55.1269C151.961 55.1269 152.468 54.8014 152.468 54.2588C152.468 53.5353 151.491 53.463 150.478 53.2459C149.104 52.9927 147.765 52.5948 147.765 50.9309C147.765 49.2669 149.14 48.5073 150.876 48.5073C152.866 48.5073 153.987 49.484 154.132 51.0394H152.323C152.251 50.2074 151.708 49.9181 150.84 49.9181C150.044 49.9181 149.538 50.2074 149.538 50.75C149.538 51.4011 150.551 51.4735 151.636 51.6905C152.902 51.9437 154.313 52.3055 154.313 54.0779C154.313 55.5972 153.01 56.5377 151.093 56.5377C148.851 56.5377 147.621 55.4886 147.512 53.8609Z" fill="white"></path>
<path d="M159.92 56.3207V55.4163H159.883C159.377 56.1036 158.762 56.5015 157.713 56.5015C156.013 56.5015 155.073 55.4163 155.073 53.7524V48.6882H157.062V53.4268C157.062 54.3312 157.46 54.8014 158.328 54.8014C159.269 54.8014 159.847 54.078 159.847 53.0651V48.6882H161.873V56.3207H159.92Z" fill="white"></path>
<path d="M163.103 48.7244H165.056V49.7372H165.092C165.49 49.0499 166.25 48.5073 167.299 48.5073C168.276 48.5073 169.035 49.0499 169.397 49.8457H169.433C169.939 49.0137 170.771 48.5073 171.712 48.5073C173.304 48.5073 174.208 49.5563 174.208 51.2203V56.3568H172.182V51.582C172.182 50.7139 171.748 50.2798 171.025 50.2798C170.193 50.2798 169.65 50.9309 169.65 51.9437V56.3568H167.624V51.582C167.624 50.7139 167.19 50.2798 166.467 50.2798C165.635 50.2798 165.092 50.9309 165.092 51.9437V56.3568H163.067V48.7244H163.103Z" fill="white"></path>
<path d="M175.04 52.5225C175.04 50.2798 176.559 48.5073 178.802 48.5073C181.262 48.5073 182.564 50.3883 182.564 53.1013H177.029C177.174 54.2588 177.825 55.0184 178.983 55.0184C179.778 55.0184 180.213 54.6567 180.466 54.0779H182.455C182.166 55.4163 180.972 56.5738 179.019 56.5738C176.451 56.5377 175.04 54.8014 175.04 52.5225ZM177.065 51.6905H180.466C180.393 50.7139 179.778 50.0627 178.838 50.0627C177.753 50.0627 177.246 50.7139 177.065 51.6905Z" fill="white"></path>
<path d="M185.349 49.9182H185.385C185.855 49.05 186.362 48.616 187.266 48.616C187.483 48.616 187.628 48.616 187.736 48.6883V50.4608H187.7C186.362 50.3161 185.421 51.0395 185.421 52.6311V56.3569H183.396V48.7245H185.349V49.9182Z" fill="white"></path>
<path d="M191.281 45.7222H193.452V54.5483H198.444V56.3569H191.318V45.7222H191.281Z" fill="white"></path>
<path d="M203.869 55.4886C203.471 56.0674 202.893 56.5014 201.59 56.5014C200.035 56.5014 198.95 55.6695 198.95 54.1864C198.95 52.5225 200.324 51.9799 202.025 51.7267C203.291 51.5458 203.869 51.4373 203.869 50.8585C203.869 50.3159 203.435 49.9542 202.603 49.9542C201.663 49.9542 201.193 50.2797 201.12 51.0394H199.312C199.384 49.701 200.361 48.5435 202.603 48.5435C204.882 48.5435 205.823 49.5563 205.823 51.3649V55.2354C205.823 55.8142 205.895 56.1397 206.076 56.2844V56.3568H204.123C203.978 56.1759 203.905 55.8142 203.869 55.4886ZM203.869 53.6438V52.4863C203.508 52.7033 202.965 52.8118 202.459 52.9204C201.41 53.1736 200.867 53.3906 200.867 54.1141C200.867 54.8375 201.337 55.0907 202.061 55.0907C203.218 55.0907 203.869 54.4034 203.869 53.6438Z" fill="white"></path>
<path d="M206.112 48.7244H208.102L209.006 52.2693C209.187 52.8842 209.331 53.68 209.331 53.68H209.368C209.368 53.68 209.548 52.8481 209.693 52.2331L210.634 48.7244H212.37L213.347 52.2331C213.527 52.8842 213.708 53.68 213.708 53.68H213.744C213.744 53.68 213.925 52.8842 214.07 52.2693L215.047 48.7244H217L214.721 56.3568H212.876L211.864 52.631C211.683 52.0161 211.538 51.2926 211.538 51.2926H211.502C211.502 51.2926 211.321 52.0161 211.14 52.631L210.091 56.3568H208.282L206.112 48.7244Z" fill="white"></path>
<path d="M121.07 68.294C121.07 65.1469 123.023 62.7595 126.17 62.7595C128.775 62.7595 130.33 64.3149 130.547 66.3406H128.413C128.232 65.2554 127.436 64.5682 126.17 64.5682C124.217 64.5682 123.277 66.1959 123.277 68.294C123.277 70.4643 124.398 72.0197 126.17 72.0197C127.436 72.0197 128.341 71.2601 128.449 70.1388H130.547C130.475 71.0792 130.077 71.9836 129.39 72.6347C128.666 73.322 127.653 73.756 126.17 73.756C123.168 73.756 121.07 71.4772 121.07 68.294Z" fill="white"></path>
<path d="M131.054 69.7408C131.054 67.4981 132.573 65.7256 134.816 65.7256C137.275 65.7256 138.578 67.6066 138.578 70.3195H133.043C133.188 71.4771 133.839 72.2367 134.997 72.2367C135.792 72.2367 136.226 71.875 136.48 71.2962H138.469C138.18 72.6346 136.986 73.7921 135.033 73.7921C132.501 73.7559 131.054 72.0197 131.054 69.7408ZM133.079 68.9088H136.48C136.407 67.9321 135.792 67.281 134.852 67.281C133.803 67.281 133.26 67.9321 133.079 68.9088Z" fill="white"></path>
<path d="M141.399 66.9555H141.435C141.942 66.1235 142.665 65.7256 143.678 65.7256C145.27 65.7256 146.319 66.9193 146.319 68.5832V73.5389H144.329V68.8726C144.329 68.0406 143.859 67.4619 142.991 67.4619C142.086 67.4619 141.435 68.1853 141.435 69.1982V73.5027H139.41V65.8703H141.399V66.9555Z" fill="white"></path>
<path d="M146.825 65.9426H147.874V63.5552H149.864V65.9426H151.166V67.281H149.864V71.3323C149.864 71.9111 150.189 72.0919 150.623 72.0919C150.877 72.0919 151.202 72.0919 151.202 72.0919V73.575C151.202 73.575 150.732 73.6112 149.936 73.6112C148.959 73.6112 147.874 73.2133 147.874 71.8025V67.281H146.825V65.9426Z" fill="white"></path>
<path d="M151.455 69.7408C151.455 67.4981 152.974 65.7256 155.217 65.7256C157.677 65.7256 158.979 67.6066 158.979 70.3195H153.445C153.589 71.4771 154.24 72.2367 155.398 72.2367C156.194 72.2367 156.628 71.875 156.881 71.2962H158.871C158.581 72.6346 157.388 73.7921 155.434 73.7921C152.866 73.7559 151.455 72.0197 151.455 69.7408ZM153.481 68.9088H156.881C156.809 67.9321 156.194 67.281 155.253 67.281C154.168 67.281 153.626 67.9321 153.481 68.9088Z" fill="white"></path>
<path d="M161.764 67.1364H161.801C162.271 66.2683 162.777 65.8342 163.682 65.8342C163.899 65.8342 164.043 65.8342 164.152 65.9066V67.679H164.116C162.777 67.5343 161.837 68.2578 161.837 69.8494V73.5752H159.811V65.9427H161.764V67.1364Z" fill="white"></path>
<path d="M0 37.2216H8.64527L18.3396 53.861H18.4119V37.2216H26.7678V66.8108H17.8331L8.42824 50.0629H8.35589V66.8108H0V37.2216Z" fill="white"></path>
<path d="M28.8298 52.1247C28.8298 43.2624 34.9068 36.679 43.8053 36.679C47.0247 36.679 49.9185 37.5109 52.0889 38.994C55.1636 41.092 56.936 44.4199 57.2977 48.1819H48.6525C48.4354 45.8668 46.5183 43.805 43.6968 43.805C39.6093 43.805 37.6198 47.2776 37.6198 52.1247C37.6198 56.9718 39.9349 60.4444 43.7692 60.4444C46.8077 60.4444 48.6163 58.4549 48.9057 55.8143H57.6233C57.3701 59.0698 55.887 61.9637 53.789 64.0255C51.2569 66.4852 48.1099 67.5343 43.8053 67.5343C34.7983 67.4981 28.8298 60.9508 28.8298 52.1247Z" fill="white"></path>
<path d="M59.4316 37.2216H68.0769V59.3954H80.7374V66.8108H59.4316V37.2216Z" fill="white"></path>
<path d="M80.7014 52.1247C80.7014 43.2624 86.7784 36.679 95.6769 36.679C98.8963 36.679 101.79 37.5109 103.96 38.994C107.035 41.092 108.808 44.4199 109.169 48.1819H100.524C100.307 45.8668 98.3899 43.805 95.5684 43.805C91.4809 43.805 89.4914 47.2776 89.4914 52.1247C89.4914 56.9718 91.8064 60.4444 95.6407 60.4444C98.6792 60.4444 100.488 58.4549 100.777 55.8143H109.495C109.242 59.0698 107.759 61.9637 105.661 64.0255C103.128 66.4852 99.9815 67.5343 95.6769 67.5343C86.6699 67.4981 80.7014 60.9508 80.7014 52.1247Z" fill="white"></path>
</svg>
